<?xml version="1.0" standalone="no"?>
<!DOCTYPE svg PUBLIC "-//W3C//DTD SVG 20010904//EN"
 "http://www.w3.org/TR/2001/REC-SVG-20010904/DTD/svg10.dtd">
<svg version="1.0" xmlns="http://www.w3.org/2000/svg"
 width="1280.000000pt" height="1278.000000pt" viewBox="0 0 1280.000000 1278.000000"
 preserveAspectRatio="xMidYMid meet">
<metadata>
Created by potrace 1.16, written by Peter Selinger 2001-2019
</metadata>
<g transform="translate(0.000000,1278.000000) scale(0.100000,-0.100000)"
fill="#000000" stroke="none">
<path d="M5920 12699 c-342 -31 -645 -76 -911 -135 -1118 -246 -2146 -789
-2973 -1569 -585 -552 -1017 -1134 -1366 -1840 -343 -694 -545 -1414 -627
-2235 -22 -222 -25 -890 -5 -1105 117 -1244 534 -2326 1282 -3324 172 -229
286 -357 570 -641 283 -283 410 -396 642 -571 886 -667 1865 -1075 2976 -1239
220 -32 510 -43 1027 -37 504 6 566 11 900 68 1569 268 2957 1088 3940 2329
1302 1643 1707 3839 1080 5854 -211 680 -561 1357 -1004 1944 -283 374 -669
772 -1066 1097 -919 755 -2035 1226 -3255 1375 -282 34 -970 50 -1210 29z
m839 -2564 c228 -32 496 -117 726 -230 272 -133 482 -282 690 -490 379 -378
628 -865 715 -1395 26 -162 37 -463 21 -630 -70 -758 -493 -1468 -1123 -1883
-422 -278 -913 -427 -1405 -427 -942 0 -1821 536 -2254 1375 -217 420 -304
838 -279 1327 42 779 462 1506 1130 1953 335 224 710 362 1127 415 96 12 528
2 652 -15z m591 -5725 c1015 -71 1750 -266 2255 -598 169 -112 264 -222 328
-382 99 -251 43 -595 -133 -815 -195 -243 -690 -592 -1185 -835 -523 -258
-1031 -406 -1675 -491 -272 -35 -926 -27 -1225 16 -894 128 -1678 449 -2378
974 -316 237 -423 363 -503 596 -26 75 -28 91 -28 245 0 185 9 238 59 345 92
194 233 315 558 479 546 276 1112 399 2192 476 155 11 1545 3 1735 -10z"/>
</g>
</svg>
